<?xml version="1.0" encoding="UTF-8"?>
<svg id="Layer_2" data-name="Layer 2" xmlns="http://www.w3.org/2000/svg" xmlns:xlink="http://www.w3.org/1999/xlink" viewBox="0 0 1920 1080">
  <defs>
    <style>
      .cls-1 {
        fill: url(#linear-gradient);
      }

      .cls-1, .cls-2, .cls-3, .cls-4, .cls-5, .cls-6, .cls-7, .cls-8, .cls-9, .cls-10, .cls-11, .cls-12, .cls-13, .cls-14, .cls-15, .cls-16, .cls-17, .cls-18, .cls-19, .cls-20, .cls-21, .cls-22, .cls-23, .cls-24, .cls-25, .cls-26, .cls-27, .cls-28, .cls-29, .cls-30, .cls-31, .cls-32, .cls-33, .cls-34, .cls-35, .cls-36, .cls-37, .cls-38, .cls-39, .cls-40, .cls-41, .cls-42, .cls-43, .cls-44, .cls-45, .cls-46, .cls-47, .cls-48, .cls-49, .cls-50, .cls-51, .cls-52, .cls-53, .cls-54, .cls-55, .cls-56, .cls-57, .cls-58, .cls-59, .cls-60, .cls-61, .cls-62, .cls-63, .cls-64, .cls-65, .cls-66, .cls-67, .cls-68, .cls-69, .cls-70, .cls-71, .cls-72, .cls-73 {
        stroke-width: 0px;
      }

      .cls-2 {
        fill: url(#linear-gradient-38);
      }

      .cls-3 {
        fill: url(#linear-gradient-33);
      }

      .cls-4 {
        fill: url(#linear-gradient-29);
      }

      .cls-5 {
        fill: url(#linear-gradient-32);
      }

      .cls-6 {
        fill: url(#linear-gradient-30);
      }

      .cls-7 {
        fill: url(#linear-gradient-31);
      }

      .cls-8 {
        fill: url(#linear-gradient-36);
      }

      .cls-9 {
        fill: url(#linear-gradient-39);
      }

      .cls-10 {
        fill: url(#linear-gradient-34);
      }

      .cls-11 {
        fill: url(#linear-gradient-37);
      }

      .cls-12 {
        fill: url(#linear-gradient-35);
      }

      .cls-13 {
        fill: url(#linear-gradient-28);
      }

      .cls-14 {
        fill: url(#linear-gradient-25);
      }

      .cls-15 {
        fill: url(#linear-gradient-11);
      }

      .cls-16 {
        fill: url(#linear-gradient-12);
      }

      .cls-17 {
        fill: url(#linear-gradient-13);
      }

      .cls-18 {
        fill: url(#linear-gradient-10);
      }

      .cls-19 {
        fill: url(#linear-gradient-17);
      }

      .cls-20 {
        fill: url(#linear-gradient-16);
      }

      .cls-21 {
        fill: url(#linear-gradient-19);
      }

      .cls-22 {
        fill: url(#linear-gradient-15);
      }

      .cls-23 {
        fill: url(#linear-gradient-23);
      }

      .cls-24 {
        fill: url(#linear-gradient-21);
      }

      .cls-25 {
        fill: url(#linear-gradient-18);
      }

      .cls-26 {
        fill: url(#linear-gradient-14);
      }

      .cls-27 {
        fill: url(#linear-gradient-22);
      }

      .cls-28 {
        fill: url(#linear-gradient-20);
      }

      .cls-29 {
        fill: url(#linear-gradient-27);
      }

      .cls-30 {
        fill: url(#linear-gradient-24);
      }

      .cls-31 {
        fill: url(#linear-gradient-26);
      }

      .cls-32 {
        fill: url(#linear-gradient-45);
      }

      .cls-33 {
        fill: url(#linear-gradient-46);
      }

      .cls-34 {
        fill: url(#linear-gradient-44);
      }

      .cls-35 {
        fill: url(#linear-gradient-48);
      }

      .cls-36 {
        fill: url(#linear-gradient-49);
      }

      .cls-37 {
        fill: url(#linear-gradient-47);
      }

      .cls-38 {
        fill: url(#linear-gradient-42);
      }

      .cls-39 {
        fill: url(#linear-gradient-43);
      }

      .cls-40 {
        fill: url(#linear-gradient-40);
      }

      .cls-41 {
        fill: url(#linear-gradient-41);
      }

      .cls-42 {
        fill: url(#linear-gradient-59);
      }

      .cls-43 {
        fill: url(#linear-gradient-57);
      }

      .cls-44 {
        fill: url(#linear-gradient-58);
      }

      .cls-45 {
        fill: url(#linear-gradient-55);
      }

      .cls-46 {
        fill: url(#linear-gradient-56);
      }

      .cls-47 {
        fill: url(#linear-gradient-53);
      }

      .cls-48 {
        fill: url(#linear-gradient-51);
      }

      .cls-49 {
        fill: url(#linear-gradient-52);
      }

      .cls-50 {
        fill: url(#linear-gradient-50);
      }

      .cls-51 {
        fill: url(#linear-gradient-54);
      }

      .cls-52 {
        fill: url(#linear-gradient-60);
      }

      .cls-53 {
        fill: url(#linear-gradient-61);
      }

      .cls-54 {
        fill: url(#linear-gradient-62);
      }

      .cls-55 {
        fill: url(#linear-gradient-65);
      }

      .cls-56 {
        fill: url(#linear-gradient-67);
      }

      .cls-57 {
        fill: url(#linear-gradient-68);
      }

      .cls-58 {
        fill: url(#linear-gradient-66);
      }

      .cls-59 {
        fill: url(#linear-gradient-63);
      }

      .cls-60 {
        fill: url(#linear-gradient-69);
      }

      .cls-61 {
        fill: url(#linear-gradient-64);
      }

      .cls-62 {
        fill: url(#linear-gradient-71);
      }

      .cls-63 {
        fill: url(#linear-gradient-72);
      }

      .cls-64 {
        fill: url(#linear-gradient-70);
      }

      .cls-65 {
        fill: url(#linear-gradient-73);
      }

      .cls-66 {
        fill: url(#linear-gradient-4);
      }

      .cls-67 {
        fill: url(#linear-gradient-2);
      }

      .cls-68 {
        fill: url(#linear-gradient-3);
      }

      .cls-69 {
        fill: url(#linear-gradient-8);
      }

      .cls-70 {
        fill: url(#linear-gradient-9);
      }

      .cls-71 {
        fill: url(#linear-gradient-7);
      }

      .cls-72 {
        fill: url(#linear-gradient-5);
      }

      .cls-73 {
        fill: url(#linear-gradient-6);
      }
    </style>
    <linearGradient id="linear-gradient" x1="-179.76" y1="9.02" x2="1838.45" y2="9.02" gradientUnits="userSpaceOnUse">
      <stop offset=".28" stop-color="#2ed7de"/>
      <stop offset=".56" stop-color="#a42af9"/>
      <stop offset=".9" stop-color="#6e38d5"/>
    </linearGradient>
    <linearGradient id="linear-gradient-2" x1="-175.19" y1="31.89" x2="1842.51" y2="31.89" xlink:href="#linear-gradient"/>
    <linearGradient id="linear-gradient-3" x1="-170.62" y1="54.31" x2="1846.58" y2="54.31" xlink:href="#linear-gradient"/>
    <linearGradient id="linear-gradient-4" x1="-166.06" y1="76.33" x2="1850.64" y2="76.33" xlink:href="#linear-gradient"/>
    <linearGradient id="linear-gradient-5" x1="-161.49" y1="9.44" x2="1854.7" y2="9.44" xlink:href="#linear-gradient"/>
    <linearGradient id="linear-gradient-6" x1="-161.49" y1="97.97" x2="1854.7" y2="97.97" xlink:href="#linear-gradient"/>
    <linearGradient id="linear-gradient-7" x1="-156.93" y1="119.27" x2="1858.76" y2="119.27" xlink:href="#linear-gradient"/>
    <linearGradient id="linear-gradient-8" x1="-156.93" y1="25.23" x2="1858.76" y2="25.23" xlink:href="#linear-gradient"/>
    <linearGradient id="linear-gradient-9" x1="-152.36" y1="140.25" x2="1862.82" y2="140.25" xlink:href="#linear-gradient"/>
    <linearGradient id="linear-gradient-10" x1="-152.36" y1="41.03" x2="1862.82" y2="41.03" xlink:href="#linear-gradient"/>
    <linearGradient id="linear-gradient-11" x1="-147.79" y1="56.82" x2="1866.88" y2="56.82" xlink:href="#linear-gradient"/>
    <linearGradient id="linear-gradient-12" x1="-147.79" y1="160.92" x2="1866.88" y2="160.92" xlink:href="#linear-gradient"/>
    <linearGradient id="linear-gradient-13" x1="-143.23" y1="72.62" x2="1870.94" y2="72.62" xlink:href="#linear-gradient"/>
    <linearGradient id="linear-gradient-14" x1="-143.23" y1="181.32" x2="1870.94" y2="181.32" xlink:href="#linear-gradient"/>
    <linearGradient id="linear-gradient-15" x1="-138.66" y1="201.46" x2="1875" y2="201.46" xlink:href="#linear-gradient"/>
    <linearGradient id="linear-gradient-16" x1="-134.1" y1="221.36" x2="1879.06" y2="221.36" xlink:href="#linear-gradient"/>
    <linearGradient id="linear-gradient-17" x1="-129.53" y1="241.03" x2="1883.11" y2="241.03" xlink:href="#linear-gradient"/>
    <linearGradient id="linear-gradient-18" x1="-124.96" y1="260.49" x2="1887.17" y2="260.49" xlink:href="#linear-gradient"/>
    <linearGradient id="linear-gradient-19" x1="-120.4" y1="279.75" x2="1891.22" y2="279.75" xlink:href="#linear-gradient"/>
    <linearGradient id="linear-gradient-20" x1="-115.83" y1="298.82" x2="1895.28" y2="298.82" xlink:href="#linear-gradient"/>
    <linearGradient id="linear-gradient-21" x1="-111.26" y1="317.71" x2="1899.33" y2="317.71" xlink:href="#linear-gradient"/>
    <linearGradient id="linear-gradient-22" x1="-106.7" y1="336.44" x2="1903.39" y2="336.44" xlink:href="#linear-gradient"/>
    <linearGradient id="linear-gradient-23" x1="-102.13" y1="355.02" x2="1907.44" y2="355.02" xlink:href="#linear-gradient"/>
    <linearGradient id="linear-gradient-24" x1="-97.57" y1="373.44" x2="1911.49" y2="373.44" xlink:href="#linear-gradient"/>
    <linearGradient id="linear-gradient-25" x1="-93" y1="391.73" x2="1915.54" y2="391.73" xlink:href="#linear-gradient"/>
    <linearGradient id="linear-gradient-26" x1="-88.44" y1="409.89" x2="1919.6" y2="409.89" xlink:href="#linear-gradient"/>
    <linearGradient id="linear-gradient-27" x1="-83.87" y1="427.92" x2="1923.65" y2="427.92" xlink:href="#linear-gradient"/>
    <linearGradient id="linear-gradient-28" x1="-79.3" y1="445.83" x2="1927.7" y2="445.83" xlink:href="#linear-gradient"/>
    <linearGradient id="linear-gradient-29" x1="-74.74" y1="463.63" x2="1931.75" y2="463.63" xlink:href="#linear-gradient"/>
    <linearGradient id="linear-gradient-30" x1="-70.17" y1="481.33" x2="1935.79" y2="481.33" xlink:href="#linear-gradient"/>
    <linearGradient id="linear-gradient-31" x1="-65.61" y1="498.92" x2="1939.84" y2="498.92" xlink:href="#linear-gradient"/>
    <linearGradient id="linear-gradient-32" x1="-61.04" y1="516.41" x2="1943.89" y2="516.41" xlink:href="#linear-gradient"/>
    <linearGradient id="linear-gradient-33" x1="-56.48" y1="533.82" x2="1947.93" y2="533.82" xlink:href="#linear-gradient"/>
    <linearGradient id="linear-gradient-34" x1="-51.91" y1="540" x2="1951.98" y2="540" xlink:href="#linear-gradient"/>
    <linearGradient id="linear-gradient-35" x1="-47.35" y1="540" x2="1956.02" y2="540" xlink:href="#linear-gradient"/>
    <linearGradient id="linear-gradient-36" x1="-42.78" y1="540" x2="1960.07" y2="540" xlink:href="#linear-gradient"/>
    <linearGradient id="linear-gradient-37" x1="-38.22" y1="540" x2="1964.11" y2="540" xlink:href="#linear-gradient"/>
    <linearGradient id="linear-gradient-38" x1="-33.65" y1="540" x2="1968.15" y2="540" xlink:href="#linear-gradient"/>
    <linearGradient id="linear-gradient-39" x1="-29.09" y1="540" x2="1972.2" y2="540" xlink:href="#linear-gradient"/>
    <linearGradient id="linear-gradient-40" x1="-24.52" y1="540" x2="1976.24" y2="540" xlink:href="#linear-gradient"/>
    <linearGradient id="linear-gradient-41" x1="-19.96" y1="540" x2="1980.28" y2="540" xlink:href="#linear-gradient"/>
    <linearGradient id="linear-gradient-42" x1="-15.4" y1="540" x2="1984.32" y2="540" xlink:href="#linear-gradient"/>
    <linearGradient id="linear-gradient-43" x1="-10.83" y1="540" x2="1988.36" y2="540" xlink:href="#linear-gradient"/>
    <linearGradient id="linear-gradient-44" x1="-6.27" y1="540" x2="1992.4" y2="540" xlink:href="#linear-gradient"/>
    <linearGradient id="linear-gradient-45" x1="-6.27" y1="967.4" x2="1992.4" y2="967.4" xlink:href="#linear-gradient"/>
    <linearGradient id="linear-gradient-46" x1="-1.71" y1="982.08" x2="1996.44" y2="982.08" xlink:href="#linear-gradient"/>
    <linearGradient id="linear-gradient-47" x1="-1.71" y1="540" x2="1996.44" y2="540" xlink:href="#linear-gradient"/>
    <linearGradient id="linear-gradient-48" x1="2.86" y1="540" x2="2000.48" y2="540" xlink:href="#linear-gradient"/>
    <linearGradient id="linear-gradient-49" x1="2.86" y1="996.77" x2="2000.48" y2="996.77" xlink:href="#linear-gradient"/>
    <linearGradient id="linear-gradient-50" x1="7.42" y1="1011.45" x2="2004.51" y2="1011.45" xlink:href="#linear-gradient"/>
    <linearGradient id="linear-gradient-51" x1="7.42" y1="540" x2="2004.51" y2="540" xlink:href="#linear-gradient"/>
    <linearGradient id="linear-gradient-52" x1="11.99" y1="540" x2="2008.55" y2="540" xlink:href="#linear-gradient"/>
    <linearGradient id="linear-gradient-53" x1="11.99" y1="1026.14" x2="2008.55" y2="1026.14" xlink:href="#linear-gradient"/>
    <linearGradient id="linear-gradient-54" x1="16.55" y1="1040.82" x2="2012.59" y2="1040.82" xlink:href="#linear-gradient"/>
    <linearGradient id="linear-gradient-55" x1="16.55" y1="540" x2="2012.59" y2="540" xlink:href="#linear-gradient"/>
    <linearGradient id="linear-gradient-56" x1="21.11" y1="540" x2="2016.62" y2="540" xlink:href="#linear-gradient"/>
    <linearGradient id="linear-gradient-57" x1="21.11" y1="1055.51" x2="2016.63" y2="1055.51" xlink:href="#linear-gradient"/>
    <linearGradient id="linear-gradient-58" x1="25.67" y1="540" x2="2020.66" y2="540" xlink:href="#linear-gradient"/>
    <linearGradient id="linear-gradient-59" x1="25.67" y1="1070.2" x2="2020.66" y2="1070.2" xlink:href="#linear-gradient"/>
    <linearGradient id="linear-gradient-60" x1="30.24" y1="540" x2="2024.7" y2="540" xlink:href="#linear-gradient"/>
    <linearGradient id="linear-gradient-61" x1="34.8" y1="541.62" x2="2028.73" y2="541.62" xlink:href="#linear-gradient"/>
    <linearGradient id="linear-gradient-62" x1="39.36" y1="568.27" x2="2032.77" y2="568.27" xlink:href="#linear-gradient"/>
    <linearGradient id="linear-gradient-63" x1="43.93" y1="596.81" x2="2036.8" y2="596.81" xlink:href="#linear-gradient"/>
    <linearGradient id="linear-gradient-64" x1="48.49" y1="627.49" x2="2040.84" y2="627.49" xlink:href="#linear-gradient"/>
    <linearGradient id="linear-gradient-65" x1="53.05" y1="660.6" x2="2044.87" y2="660.6" xlink:href="#linear-gradient"/>
    <linearGradient id="linear-gradient-66" x1="57.61" y1="696.46" x2="2048.9" y2="696.46" xlink:href="#linear-gradient"/>
    <linearGradient id="linear-gradient-67" x1="62.17" y1="735.48" x2="2052.94" y2="735.48" xlink:href="#linear-gradient"/>
    <linearGradient id="linear-gradient-68" x1="66.74" y1="778.17" x2="2056.97" y2="778.17" xlink:href="#linear-gradient"/>
    <linearGradient id="linear-gradient-69" x1="71.3" y1="825.1" x2="2061" y2="825.1" xlink:href="#linear-gradient"/>
    <linearGradient id="linear-gradient-70" x1="75.86" y1="877.01" x2="2065.04" y2="877.01" xlink:href="#linear-gradient"/>
    <linearGradient id="linear-gradient-71" x1="80.42" y1="934.82" x2="2069.07" y2="934.82" xlink:href="#linear-gradient"/>
    <linearGradient id="linear-gradient-72" x1="84.98" y1="999.66" x2="2073.1" y2="999.66" xlink:href="#linear-gradient"/>
    <linearGradient id="linear-gradient-73" x1="89.54" y1="1073" x2="2077.13" y2="1073" xlink:href="#linear-gradient"/>
  </defs>
  <g id="Layer_1-2" data-name="Layer 1">
    <g>
      <polygon class="cls-1" points="10.17 0 4.43 0 0 7.86 0 18.04 10.17 0"/>
      <polygon class="cls-67" points="36.97 0 31.2 0 0 53.8 0 63.77 36.97 0"/>
      <polygon class="cls-68" points="64.72 0 58.9 0 0 98.85 0 108.62 64.72 0"/>
      <polygon class="cls-66" points="93.39 0 87.53 0 0 143.08 0 152.66 93.39 0"/>
      <polygon class="cls-72" points="754.72 18.88 755.75 17.96 775.86 0 768.35 0 753.45 13.31 707.22 0 689.15 0 754.72 18.88"/>
      <polygon class="cls-73" points="123.01 0 117.11 0 0 186.54 0 195.94 123.01 0"/>
      <polygon class="cls-71" points="153.57 0 147.62 0 0 229.3 0 238.54 153.57 0"/>
      <polygon class="cls-69" points="773.29 44.88 617.86 0 599.83 0 773.25 50.07 774.61 50.47 829.21 0 821.85 0 773.29 44.88"/>
      <polygon class="cls-70" points="185.07 0 179.08 0 0 271.41 0 280.49 185.07 0"/>
      <polygon class="cls-18" points="793.12 76.45 529.14 0 511.17 0 794.49 82.05 880.31 0 873.07 0 793.12 76.45"/>
      <polygon class="cls-15" points="812.95 108.02 441.06 0 423.14 0 812.96 113.23 814.38 113.64 929.26 0 922.15 0 812.95 108.02"/>
      <polygon class="cls-16" points="217.51 0 211.47 0 0 312.92 0 321.84 217.51 0"/>
      <polygon class="cls-17" points="834.26 145.23 976.2 0 969.21 0 832.78 139.59 353.59 0 335.71 0 832.82 144.81 834.26 145.23"/>
      <polygon class="cls-26" points="250.89 0 244.81 0 0 353.86 0 362.64 250.89 0"/>
      <polygon class="cls-22" points="278.98 8.8 854.14 176.82 1021.23 0 1014.35 0 852.61 171.17 276.96 3 0 394.27 0 402.92 278.98 8.8"/>
      <polygon class="cls-20" points="292.85 38.16 874.03 208.41 1064.45 0 1057.68 0 872.44 202.74 290.87 32.37 0 434.19 0 442.72 292.85 38.16"/>
      <polygon class="cls-19" points="306.71 67.53 893.91 240 1105.97 0 1099.3 0 892.27 234.31 306.45 62.24 304.77 61.75 0 473.65 0 482.06 306.71 67.53"/>
      <polygon class="cls-25" points="320.58 96.89 912.24 271.14 913.8 271.59 1145.86 0 1139.29 0 912.1 265.88 318.67 91.12 0 512.68 0 520.97 320.58 96.89"/>
      <polygon class="cls-21" points="334.45 126.26 933.68 303.18 1184.21 0 1177.73 0 931.93 297.45 334.22 120.98 332.58 120.49 0 551.31 0 559.49 334.45 126.26"/>
      <polygon class="cls-28" points="348.31 155.62 953.57 334.77 1221.1 0 1214.7 0 951.76 329.02 348.11 150.34 346.48 149.86 0 589.56 0 597.63 348.31 155.62"/>
      <polygon class="cls-24" points="362.18 184.98 971.81 365.88 973.45 366.36 1256.6 0 1250.28 0 971.59 360.6 361.99 179.71 360.39 179.24 0 627.45 0 635.43 362.18 184.98"/>
      <polygon class="cls-27" points="376.05 214.35 991.67 397.46 993.34 397.95 1290.77 0 1284.53 0 991.42 392.17 374.29 208.61 0 665 0 672.89 376.05 214.35"/>
      <polygon class="cls-23" points="389.92 243.71 1011.52 429.04 1013.22 429.54 1323.68 0 1317.51 0 1011.25 423.74 389.77 238.45 388.19 237.98 0 702.24 0 710.04 389.92 243.71"/>
      <polygon class="cls-30" points="403.79 273.08 1031.38 460.62 1033.11 461.13 1355.39 0 1349.29 0 1031.08 455.31 403.66 267.82 402.09 267.35 0 739.18 0 746.89 403.79 273.08"/>
      <polygon class="cls-14" points="417.65 302.44 1051.24 492.2 1053 492.72 1385.95 0 1379.92 0 1050.91 486.88 417.54 297.19 416 296.73 0 775.84 0 783.46 417.65 302.44"/>
      <polygon class="cls-31" points="431.52 331.81 1071.09 523.78 1072.88 524.31 1415.42 0 1409.45 0 1070.74 518.45 429.9 326.1 0 812.23 0 819.78 431.52 331.81"/>
      <polygon class="cls-29" points="445.39 361.17 1090.95 555.36 1092.77 555.91 1093.78 554.3 1443.84 0 1437.93 0 1090.57 550.02 445.32 355.93 443.8 355.47 0 848.36 0 855.84 445.39 361.17"/>
      <polygon class="cls-13" points="459.26 390.54 1112.65 587.5 1471.26 0 1465.4 0 1110.4 581.59 459.2 385.3 457.7 384.84 0 884.26 0 891.66 459.26 390.54"/>
      <polygon class="cls-4" points="473.13 419.9 1130.66 618.52 1132.54 619.09 1497.72 0 1491.92 0 1130.23 613.17 473.09 414.67 471.6 414.22 0 919.93 0 927.26 473.13 419.9"/>
      <polygon class="cls-6" points="487 449.27 1150.52 650.1 1152.42 650.68 1523.27 0 1517.51 0 1150.06 644.74 486.98 444.03 485.5 443.59 0 955.39 0 962.65 487 449.27"/>
      <polygon class="cls-7" points="500.87 478.63 1172.31 682.27 1547.94 0 1542.23 0 1169.88 676.31 500.86 473.4 499.4 472.96 0 990.64 0 997.84 500.87 478.63"/>
      <polygon class="cls-5" points="514.75 508 1190.23 713.26 1192.2 713.86 1571.77 0 1566.1 0 1189.71 707.88 514.75 502.77 513.3 502.33 0 1025.69 0 1032.83 514.75 508"/>
      <polygon class="cls-3" points="528.62 537.36 1212.08 745.45 1594.79 0 1589.17 0 1209.54 739.45 528.64 532.14 527.2 531.7 0 1060.56 0 1067.64 528.62 537.36"/>
      <polygon class="cls-10" points="542.49 566.73 1229.94 776.42 1231.97 777.04 1617.04 0 1611.46 0 1229.37 771.02 542.52 561.51 541.1 561.08 15.44 1080 22.56 1080 542.49 566.73"/>
      <polygon class="cls-12" points="556.36 596.09 1251.85 808.63 1638.54 0 1633 0 1249.2 802.59 556.41 590.88 555 590.45 51.22 1080 58.39 1080 556.36 596.09"/>
      <polygon class="cls-8" points="570.23 625.46 1269.65 839.58 1271.74 840.22 1659.33 0 1653.83 0 1269.03 834.16 568.89 619.82 87.93 1080 95.16 1080 570.23 625.46"/>
      <polygon class="cls-11" points="584.11 654.82 1289.51 871.16 1291.63 871.81 1679.44 0 1673.97 0 1288.86 865.73 584.18 649.62 582.79 649.19 125.59 1080 132.88 1080 584.11 654.82"/>
      <polygon class="cls-2" points="597.98 684.19 1309.37 902.74 1311.51 903.4 1312.4 901.34 1698.89 0 1693.45 0 1308.69 897.3 598.07 678.99 596.69 678.56 164.19 1080 171.54 1080 597.98 684.19"/>
      <polygon class="cls-9" points="611.85 713.55 1331.4 934.99 1717.7 0 1712.29 0 1328.52 928.87 611.96 708.35 610.59 707.93 203.74 1080 211.15 1080 611.85 713.55"/>
      <polygon class="cls-40" points="625.72 742.92 1349.08 965.9 1351.29 966.58 1735.9 0 1730.52 0 1348.35 960.44 625.84 737.72 624.49 737.31 244.23 1080 251.7 1080 625.72 742.92"/>
      <polygon class="cls-41" points="639.6 772.28 1368.94 997.48 1371.17 998.17 1753.51 0 1748.16 0 1368.17 992.02 639.73 767.09 638.38 766.68 285.67 1080 293.2 1080 639.6 772.28"/>
      <polygon class="cls-38" points="653.47 801.65 1388.79 1029.06 1391.06 1029.76 1770.56 0 1765.23 0 1388 1023.59 653.61 796.46 652.28 796.05 328.05 1080 335.64 1080 653.47 801.65"/>
      <polygon class="cls-39" points="667.35 831.02 1408.65 1060.64 1410.94 1061.36 1787.06 0 1781.75 0 1407.83 1055.16 667.5 825.83 666.18 825.42 371.38 1080 379.03 1080 667.35 831.02"/>
      <polygon class="cls-34" points="1429.96 1080 1435.24 1080 1803.03 0 1797.75 0 1429.96 1080"/>
      <polygon class="cls-32" points="681.22 860.38 1389.1 1080 1405.98 1080 681.39 855.2 680.07 854.79 415.65 1080 423.36 1080 681.22 860.38"/>
      <polygon class="cls-33" points="695.09 889.75 1307.38 1080 1324.23 1080 695.27 884.57 693.97 884.16 460.87 1080 468.65 1080 695.09 889.75"/>
      <polygon class="cls-37" points="1460.02 1080 1465.28 1080 1818.5 0 1813.24 0 1460.02 1080"/>
      <polygon class="cls-35" points="1489.25 1080 1494.49 1080 1833.47 0 1828.23 0 1489.25 1080"/>
      <polygon class="cls-36" points="708.97 919.11 1225.97 1080 1242.79 1080 709.16 913.94 707.87 913.53 507.04 1080 514.88 1080 708.97 919.11"/>
      <polygon class="cls-50" points="722.84 948.48 1144.85 1080 1161.66 1080 723.05 943.3 721.76 942.9 554.16 1080 562.06 1080 722.84 948.48"/>
      <polygon class="cls-48" points="1517.68 1080 1522.91 1080 1847.97 0 1842.75 0 1517.68 1080"/>
      <polygon class="cls-49" points="1545.34 1080 1550.55 1080 1862.01 0 1856.81 0 1545.34 1080"/>
      <polygon class="cls-47" points="736.72 977.84 1064.03 1080 1080.81 1080 736.93 972.67 735.66 972.28 602.22 1080 610.18 1080 736.72 977.84"/>
      <polygon class="cls-51" points="750.59 1007.21 983.48 1080 1000.24 1080 750.82 1002.04 749.55 1001.65 651.23 1080 659.26 1080 750.59 1007.21"/>
      <polygon class="cls-45" points="1572.25 1080 1577.44 1080 1875.61 0 1870.42 0 1572.25 1080"/>
      <polygon class="cls-46" points="1598.44 1080 1603.61 1080 1888.78 0 1883.61 0 1598.44 1080"/>
      <polygon class="cls-43" points="764.47 1036.58 903.2 1080 919.94 1080 764.71 1031.41 763.45 1031.02 701.19 1080 709.28 1080 764.47 1036.58"/>
      <polygon class="cls-44" points="1623.92 1080 1629.08 1080 1901.54 0 1896.39 0 1623.92 1080"/>
      <polygon class="cls-42" points="778.59 1060.78 777.34 1060.39 752.1 1080 760.25 1080 778.34 1065.94 823.19 1080 839.91 1080 778.59 1060.78"/>
      <polygon class="cls-52" points="1648.73 1080 1653.88 1080 1913.9 0 1908.76 0 1648.73 1080"/>
      <polygon class="cls-53" points="1672.89 1080 1678.02 1080 1920 25.59 1920 3.24 1672.89 1080"/>
      <polygon class="cls-54" points="1696.41 1080 1701.52 1080 1920 79.97 1920 56.54 1696.41 1080"/>
      <polygon class="cls-59" points="1719.31 1080 1724.42 1080 1920 138.22 1920 113.62 1719.31 1080"/>
      <polygon class="cls-61" points="1741.62 1080 1746.72 1080 1920 200.84 1920 174.99 1741.62 1080"/>
      <polygon class="cls-55" points="1763.36 1080 1768.44 1080 1920 268.43 1920 241.19 1763.36 1080"/>
      <polygon class="cls-58" points="1784.53 1080 1789.61 1080 1920 341.66 1920 312.91 1784.53 1080"/>
      <polygon class="cls-56" points="1805.16 1080 1810.23 1080 1920 421.38 1920 390.97 1805.16 1080"/>
      <polygon class="cls-57" points="1825.27 1080 1830.33 1080 1920 508.58 1920 476.33 1825.27 1080"/>
      <polygon class="cls-60" points="1844.87 1080 1849.92 1080 1920 604.49 1920 570.19 1844.87 1080"/>
      <polygon class="cls-64" points="1863.97 1080 1869.02 1080 1920 710.59 1920 674.02 1863.97 1080"/>
      <polygon class="cls-62" points="1882.59 1080 1887.63 1080 1920 828.76 1920 789.63 1882.59 1080"/>
      <polygon class="cls-63" points="1920 919.31 1900.75 1080 1905.78 1080 1920 961.34 1920 919.31"/>
      <polygon class="cls-65" points="1920 1065.99 1918.44 1080 1920 1080 1920 1065.99"/>
    </g>
  </g>
</svg>